# xmcd CD database file
#
# Track frame offsets:
#	150
#	26515
#	39030
#	60025
#	80817
#	99940
#	119396
#	142923
#	174231
#	188023
#	205272
#	219414
#	251720
#	279359
#	298038
#	315411
#
# Disc length: 4424 seconds
#
# Revision: 0
# Processed by: cddbd v1.5.2PL0 Copyright (c) Steve Scherf et al.
# Submitted via: CDex 1.51
#
DISCID=d0114610
DTITLE=Various Artist - Blue Note 70 Years, CD3
DYEAR=2009
DGENRE=Jazz
TTITLE0=Stanley Jordan - Freddie Freeloader
TTITLE1=Bobby McFerrin - Susie Q
TTITLE2=Michel Petrucciani - September Second
TTITLE3=US3 - Cantaloop
TTITLE4=John Scofield and Pat Metheny - The Red One
TTITLE5=Holly Cole - Invitation to the Blues
TTITLE6=Dianne Reeves - In Your Eyes
TTITLE7=St. Germain - Rose Rouge
TTITLE8=Norah Jones - Don't Know Why
TTITLE9=Cassandra Wilson - Some Day My Prince Will Come
TTITLE10=Jacky Terrasson - La Vie En Rose
TTITLE11=Patricia Barber - Norwegian Wood Live
TTITLE12=Gonzalo Rubalcaba - Supernova 2
TTITLE13=Medeski, Martin and Wood - Reflector
TTITLE14=Eliane Elias - Garota De Ipanema
TTITLE15=Terence Blanchard - Dear Mom
EXTD=YEAR: 2009
EXTT0=
EXTT1=
EXTT2=
EXTT3=
EXTT4=
EXTT5=
EXTT6=
EXTT7=
EXTT8=
EXTT9=
EXTT10=
EXTT11=
EXTT12=
EXTT13=
EXTT14=
EXTT15=
PLAYORDER=
